<svg id="Camada_1" data-name="Camada 1"
    xmlns="http://www.w3.org/2000/svg" width="24" height="24" viewBox="0 0 56 56">
    <defs>
        <style>
            path {
                fill:#121212;
                fill-rule:evenodd;
                }
            circle {
                fill: white;
            }
        </style>
    </defs>
    <circle r="27.9" cy="28" cx="28"></circle>
    <path d="M55,28A27,27,0,1,1,28,1,27,27,0,0,1,55,28Zm1,0A28,28,0,1,1,28,0,28,28,0,0,1,56,28ZM14.75,41.24V29.3l2.83,2.32,11.71,9.62ZM40.28,14.76v10.7L37.76,23.4l-10.5-8.64Zm1,15.65a6.25,6.25,0,0,1,.23.77h0a8.22,8.22,0,0,1,.27,2,7.47,7.47,0,0,1-1.31,4.41,7.88,7.88,0,0,1-3.65,2.85,9.75,9.75,0,0,1-1.83.51,20.08,20.08,0,0,1-2.32.15L32.55,41,18.48,29.48a11.18,11.18,0,0,1-2.88-3.17,5.79,5.79,0,0,1-.34-.71q-.12-.39-.21-.78a8.29,8.29,0,0,1-.27-2,7.57,7.57,0,0,1,1.31-4.42,7.9,7.9,0,0,1,3.66-2.84,9.65,9.65,0,0,1,1.82-.51,18.11,18.11,0,0,1,2.33-.15l.23.19L38.06,26.53a11.58,11.58,0,0,1,2.88,3.16C41.06,29.93,41.17,30.16,41.27,30.41Z"/>
    <path d="M28,54.5A26.5,26.5,0,1,0,1.5,28,26.49,26.49,0,0,0,28,54.5ZM28,56A28,28,0,1,0,0,28,28,28,0,0,0,28,56Z"/>
</svg>  